<?xml version="1.0" standalone="no"?>
<!DOCTYPE svg PUBLIC "-//W3C//DTD SVG 20010904//EN"
 "http://www.w3.org/TR/2001/REC-SVG-20010904/DTD/svg10.dtd">
<svg version="1.0" xmlns="http://www.w3.org/2000/svg"
 width="256.000000pt" height="256.000000pt" viewBox="0 0 256.000000 256.000000"
 preserveAspectRatio="xMidYMid meet">

<g transform="translate(0.000000,256.000000) scale(0.100000,-0.100000)"
fill="#000000" stroke="none">
<path d="M417 2541 c-130 -43 -215 -146 -237 -288 -7 -45 -10 -386 -8 -1018
l3 -950 24 -60 c37 -91 125 -175 215 -205 83 -27 164 -24 244 10 65 28 92 60
92 110 0 83 -69 118 -159 80 -83 -36 -151 -15 -196 61 -20 33 -20 52 -20 1006
0 966 0 972 21 999 37 51 71 69 127 69 51 0 66 -9 822 -475 424 -261 782 -486
797 -500 56 -56 55 -149 -4 -205 -18 -18 -282 -185 -587 -371 -490 -299 -555
-342 -568 -372 -17 -41 -4 -93 30 -117 40 -28 88 -19 178 36 673 408 1060 650
1095 686 136 139 128 368 -17 496 -51 46 -1535 963 -1614 998 -69 30 -164 34
-238 10z"/>
</g>
</svg>
